<svg version="1.1" id="Layer_1" xmlns="http://www.w3.org/2000/svg" xmlns:xlink="http://www.w3.org/1999/xlink" x="0px" y="0px"
	 width="100%" viewBox="0 0 1200 1200" enable-background="new 0 0 1200 1200" xml:space="preserve">
<path fill="#DC1A22" opacity="1.000000" stroke="none" 
	d="
M664.000000,1201.000000 
	C442.666656,1201.000000 221.833328,1201.000000 1.000000,1201.000000 
	C1.000000,801.000000 1.000000,401.000000 1.000000,1.000000 
	C401.000000,1.000000 801.000000,1.000000 1201.000000,1.000000 
	C1201.000000,401.000000 1201.000000,801.000000 1201.000000,1201.000000 
	C1022.166687,1201.000000 843.333313,1201.000000 664.000000,1201.000000 
M457.084991,777.815063 
	C435.679230,778.407043 415.936005,784.565430 397.823914,795.864746 
	C394.741455,797.787659 392.510071,797.825378 389.414398,795.923096 
	C363.633606,780.080566 335.644165,774.344421 305.791870,779.024658 
	C264.226349,785.541382 233.226624,807.887573 214.090973,844.966797 
	C195.851425,880.309692 195.222549,916.972412 211.758301,953.538208 
	C224.956299,982.723145 246.542953,1003.765625 275.849152,1015.908020 
	C315.219238,1032.220215 353.680664,1029.094971 390.429077,1007.025024 
	C391.994720,1006.084717 394.860199,1006.049316 396.568573,1006.818054 
	C405.153107,1010.681213 413.227234,1015.918335 422.076324,1018.911987 
	C459.372803,1031.529541 495.061218,1027.280273 528.752930,1006.925598 
	C531.098511,1005.508545 532.612549,1005.372620 534.925720,1006.841248 
	C553.702576,1018.762146 574.291199,1025.028931 596.489380,1025.808228 
	C621.011841,1026.669067 643.864319,1020.820496 664.937988,1008.171204 
	C667.576477,1006.587463 669.890808,1004.523071 673.465149,1006.877991 
	C677.718323,1009.679871 682.349854,1011.954590 686.960205,1014.159363 
	C711.665955,1025.973999 737.519287,1028.604736 764.251526,1023.381714 
	C780.223450,1020.260986 794.864746,1013.797668 808.392395,1004.975403 
	C811.239075,1006.735535 813.809448,1008.561401 816.579956,1010.002686 
	C861.102356,1033.164062 905.173950,1032.073120 947.006775,1004.494751 
	C980.077087,982.692932 998.462036,950.731934 1001.188904,910.941162 
	C1004.227356,866.603455 987.845276,830.095276 952.743896,803.001831 
	C911.775452,771.379883 856.744751,768.896240 813.113037,795.599976 
	C809.614502,797.741150 807.228455,797.929749 803.843140,795.785461 
	C784.536011,783.556641 763.287598,777.796814 740.522949,777.515320 
	C716.152039,777.214050 693.659668,783.745667 672.990479,796.578186 
	C670.938416,797.852173 669.685486,797.946411 667.324219,796.630676 
	C659.968201,792.531494 652.500549,788.380371 644.613586,785.528809 
	C606.504395,771.750061 569.933472,775.393433 535.229248,796.429749 
	C532.542725,798.058167 530.636414,797.776855 528.082886,796.168030 
	C506.675507,782.680603 483.247650,776.683838 457.084991,777.815063 
M414.108124,486.435303 
	C409.122681,489.091034 404.019165,491.548248 399.170319,494.433502 
	C355.871521,520.198181 332.506439,568.511597 339.916260,618.152954 
	C346.405823,661.629395 369.500275,693.848816 409.094513,712.788818 
	C449.095459,731.923401 488.949463,729.520386 527.195007,706.905945 
	C531.433350,704.399841 533.964478,705.580933 537.337402,707.483643 
	C580.563904,731.869385 623.643127,731.401794 666.463684,706.451721 
	C669.051636,704.943848 670.749695,704.715332 673.574463,706.353699 
	C718.251038,732.265503 763.514893,732.982178 806.810364,704.806396 
	C850.162415,676.593811 868.533508,634.863770 861.926331,583.498230 
	C856.588806,542.003662 834.163757,510.775208 797.506287,491.343842 
	C760.463989,471.708496 722.049133,471.505951 683.969543,489.838409 
	C679.210632,492.129456 674.619690,496.897064 670.021118,496.810028 
	C665.180298,496.718414 660.541809,491.923370 655.611694,489.617981 
	C614.615540,470.447479 574.577942,472.489655 535.653198,495.481384 
	C532.819641,497.155060 531.018005,497.225159 528.130798,495.428680 
	C509.704529,483.963531 489.605042,477.871460 467.850555,476.935669 
	C449.449432,476.144104 431.898285,479.626862 414.108124,486.435303 
M342.377472,269.730255 
	C332.555267,313.141602 341.495148,352.054779 371.989868,384.748871 
	C403.067963,418.068481 441.913788,429.770966 486.652039,422.162720 
	C501.705719,419.602661 515.534180,413.670502 528.502075,405.722321 
	C530.811157,404.307037 532.251526,404.123810 535.030151,405.554474 
	C544.717712,410.542603 554.463867,415.885468 564.814758,419.028961 
	C596.314941,428.595520 627.150208,425.947540 656.768188,411.282318 
	C661.218872,409.078522 665.487671,404.539307 669.807068,404.580688 
	C674.307922,404.623871 678.671448,409.107117 683.261597,411.300415 
	C716.049011,426.967194 749.535522,429.130859 783.713379,416.161285 
	C816.895569,403.569580 840.751160,380.592743 853.852295,348.054504 
	C871.033936,305.381958 866.167480,264.270813 839.136047,226.606186 
	C823.157104,204.341812 801.623413,189.118958 775.341370,181.429428 
	C739.490601,170.940277 705.306946,175.539841 673.333435,195.034225 
	C670.751892,196.608185 669.256104,196.198212 666.737610,194.963699 
	C656.953003,190.167435 647.296997,184.640747 636.946655,181.552078 
	C601.697876,171.033447 567.954224,175.364136 536.309937,194.373962 
	C533.305481,196.178864 530.921021,196.667618 527.733459,194.680267 
	C500.249542,177.545044 470.173462,171.675262 438.800873,178.513092 
	C389.157410,189.333176 356.954254,219.971130 342.377472,269.730255 
z"/>
<path fill="#FFFEFE" opacity="1.000000" stroke="none" 
	d="
M457.540253,777.754883 
	C483.247650,776.683838 506.675507,782.680603 528.082886,796.168030 
	C530.636414,797.776855 532.542725,798.058167 535.229248,796.429749 
	C569.933472,775.393433 606.504395,771.750061 644.613586,785.528809 
	C652.500549,788.380371 659.968201,792.531494 667.324219,796.630676 
	C669.685486,797.946411 670.938416,797.852173 672.990479,796.578186 
	C693.659668,783.745667 716.152039,777.214050 740.522949,777.515320 
	C763.287598,777.796814 784.536011,783.556641 803.843140,795.785461 
	C807.228455,797.929749 809.614502,797.741150 813.113037,795.599976 
	C856.744751,768.896240 911.775452,771.379883 952.743896,803.001831 
	C987.845276,830.095276 1004.227356,866.603455 1001.188904,910.941162 
	C998.462036,950.731934 980.077087,982.692932 947.006775,1004.494751 
	C905.173950,1032.073120 861.102356,1033.164062 816.579956,1010.002686 
	C813.809448,1008.561401 811.239075,1006.735535 808.392395,1004.975403 
	C794.864746,1013.797668 780.223450,1020.260986 764.251526,1023.381714 
	C737.519287,1028.604736 711.665955,1025.973999 686.960205,1014.159363 
	C682.349854,1011.954590 677.718323,1009.679871 673.465149,1006.877991 
	C669.890808,1004.523071 667.576477,1006.587463 664.937988,1008.171204 
	C643.864319,1020.820496 621.011841,1026.669067 596.489380,1025.808228 
	C574.291199,1025.028931 553.702576,1018.762146 534.925720,1006.841248 
	C532.612549,1005.372620 531.098511,1005.508545 528.752930,1006.925598 
	C495.061218,1027.280273 459.372803,1031.529541 422.076324,1018.911987 
	C413.227234,1015.918335 405.153107,1010.681213 396.568573,1006.818054 
	C394.860199,1006.049316 391.994720,1006.084717 390.429077,1007.025024 
	C353.680664,1029.094971 315.219238,1032.220215 275.849152,1015.908020 
	C246.542953,1003.765625 224.956299,982.723145 211.758301,953.538208 
	C195.222549,916.972412 195.851425,880.309692 214.090973,844.966797 
	C233.226624,807.887573 264.226349,785.541382 305.791870,779.024658 
	C335.644165,774.344421 363.633606,780.080566 389.414398,795.923096 
	C392.510071,797.825378 394.741455,797.787659 397.823914,795.864746 
	C415.936005,784.565430 435.679230,778.407043 457.540253,777.754883 
M734.157349,915.077148 
	C735.249695,912.991089 736.341980,910.905029 737.795349,908.129517 
	C738.421997,909.885559 738.787048,910.784973 739.066406,911.710205 
	C741.997681,921.417603 744.848145,931.150452 747.918823,940.813354 
	C748.314636,942.059082 749.755310,943.755615 750.842407,943.858032 
	C754.760132,944.226990 758.733765,944.003052 763.162354,944.003052 
	C759.455017,931.693848 756.744873,919.598022 752.144836,908.269470 
	C747.275452,896.277344 747.906860,885.787903 755.206665,875.200195 
	C758.244019,870.794678 760.202759,865.645508 763.051575,860.049622 
	C760.110962,860.049622 758.283569,860.293518 756.544678,860.004639 
	C750.955200,859.076050 747.961731,861.232971 745.814941,866.621887 
	C742.353088,875.311768 737.905823,883.609009 733.874817,892.072144 
	C733.538757,891.999146 733.202637,891.926208 732.866577,891.853210 
	C732.866577,881.326782 732.866577,870.800354 732.866577,860.413208 
	C728.087952,860.413208 723.855591,860.413208 719.547363,860.413208 
	C719.547363,888.368958 719.547363,915.960693 719.547363,944.008545 
	C721.941406,944.008545 724.070923,944.008545 726.200439,944.008545 
	C728.319519,944.008545 730.438660,944.008545 733.011230,944.008545 
	C733.011230,939.748840 732.907288,935.953491 733.036072,932.166016 
	C733.221252,926.722656 733.575989,921.284973 734.157349,915.077148 
M442.733093,922.433228 
	C442.810669,924.428345 442.788116,926.433289 442.983093,928.416870 
	C443.833771,937.071716 449.074951,942.963867 457.381470,944.702209 
	C472.241119,947.811951 482.579193,939.985901 482.888702,924.848206 
	C483.201630,909.544250 482.978088,894.228699 482.915588,878.918579 
	C482.908203,877.112305 482.540314,875.284973 482.157837,873.506409 
	C479.969696,863.331726 472.798584,858.442505 461.005157,859.019104 
	C450.762451,859.519897 444.046387,865.630859 443.005310,875.528381 
	C442.744934,878.003906 442.749451,880.514038 442.744720,883.008484 
	C442.720428,895.823059 442.732819,908.637695 442.733093,922.433228 
M580.943054,924.322388 
	C580.998108,925.652649 580.950928,926.996399 581.124146,928.311035 
	C582.631470,939.750427 589.932556,945.461731 602.468567,945.053650 
	C613.347351,944.699524 620.648804,938.219849 620.899597,927.464661 
	C621.295288,910.494812 621.274841,893.502930 620.894897,876.532349 
	C620.675476,866.731201 614.370422,860.469116 604.835815,859.144287 
	C590.361816,857.133240 581.143616,864.853455 580.986145,879.415161 
	C580.827759,894.063232 580.942871,908.714294 580.943054,924.322388 
M308.055969,867.784546 
	C307.268555,871.154053 305.851013,874.514221 305.800934,877.894653 
	C305.562012,894.030151 305.325165,910.182129 305.804932,926.306885 
	C306.230743,940.617737 316.786407,947.965454 330.835846,944.559265 
	C340.261078,942.274170 344.437195,935.835388 344.695251,923.190979 
	C344.939270,911.233093 344.847443,911.150269 332.740265,912.519531 
	C332.595459,912.535950 332.467560,912.702026 331.749329,913.210632 
	C331.749329,916.733154 331.904572,920.687744 331.711517,924.625244 
	C331.448181,929.995483 329.215790,932.649963 325.383911,932.619385 
	C321.550476,932.588806 319.262817,929.834778 319.157837,924.537354 
	C319.009521,917.051514 319.107330,909.560730 319.107605,902.072021 
	C319.107910,894.583374 319.005219,887.092346 319.161102,879.606812 
	C319.272736,874.244995 321.499359,871.513000 325.397797,871.607483 
	C330.574188,871.732849 331.446716,875.530640 331.710419,879.552734 
	C331.902710,882.486267 331.748016,885.442505 331.748016,888.447876 
	C336.343323,888.447876 340.362335,888.447876 344.389771,888.447876 
	C344.389771,884.228455 344.668671,880.398743 344.334808,876.623230 
	C343.504761,867.237061 339.503418,862.010864 331.954041,859.875305 
	C322.398590,857.172302 313.903198,859.785461 308.055969,867.784546 
M881.934875,859.176025 
	C880.605347,859.107605 879.275818,858.980469 877.946289,858.979919 
	C866.084473,858.975281 859.344482,865.087891 858.171143,876.878662 
	C857.273560,885.898743 860.146484,893.618469 866.391113,900.066528 
	C870.325867,904.129517 874.563354,907.900269 878.475220,911.984009 
	C882.472900,916.157288 884.371033,921.160828 883.414734,927.030640 
	C882.815430,930.709167 880.635437,932.739197 876.929626,932.545532 
	C873.227783,932.352051 871.274292,930.076721 871.015747,926.393250 
	C870.845825,923.971375 870.729431,921.545715 870.592773,919.186401 
	C866.176880,919.186401 862.238892,919.186401 858.162781,919.186401 
	C858.162781,922.710510 857.767883,926.052124 858.235352,929.268494 
	C859.758972,939.751953 866.253723,945.029541 877.178406,945.077576 
	C888.225037,945.126099 895.255127,939.872742 896.856689,929.944946 
	C898.534790,919.543091 896.552185,910.059509 888.791931,902.354858 
	C884.660217,898.252625 879.898438,894.620300 876.524841,889.974365 
	C874.073242,886.598206 872.894470,882.002869 872.147888,877.774658 
	C871.523376,874.237366 873.911133,871.769287 877.741333,871.635925 
	C881.536011,871.503723 883.568176,873.637146 883.959656,877.330627 
	C884.181702,879.424805 884.255432,881.534668 884.392212,883.581543 
	C888.864868,883.581543 892.910889,883.581543 896.924988,883.581543 
	C897.674561,868.837036 893.847717,862.388550 881.934875,859.176025 
z"/>
<path fill="#FFFEFE" opacity="1.000000" stroke="none" 
	d="
M414.462952,486.284119 
	C431.898285,479.626862 449.449432,476.144104 467.850555,476.935669 
	C489.605042,477.871460 509.704529,483.963531 528.130798,495.428680 
	C531.018005,497.225159 532.819641,497.155060 535.653198,495.481384 
	C574.577942,472.489655 614.615540,470.447479 655.611694,489.617981 
	C660.541809,491.923370 665.180298,496.718414 670.021118,496.810028 
	C674.619690,496.897064 679.210632,492.129456 683.969543,489.838409 
	C722.049133,471.505951 760.463989,471.708496 797.506287,491.343842 
	C834.163757,510.775208 856.588806,542.003662 861.926331,583.498230 
	C868.533508,634.863770 850.162415,676.593811 806.810364,704.806396 
	C763.514893,732.982178 718.251038,732.265503 673.574463,706.353699 
	C670.749695,704.715332 669.051636,704.943848 666.463684,706.451721 
	C623.643127,731.401794 580.563904,731.869385 537.337402,707.483643 
	C533.964478,705.580933 531.433350,704.399841 527.195007,706.905945 
	C488.949463,729.520386 449.095459,731.923401 409.094513,712.788818 
	C369.500275,693.848816 346.405823,661.629395 339.916260,618.152954 
	C332.506439,568.511597 355.871521,520.198181 399.170319,494.433502 
	C404.019165,491.548248 409.122681,489.091034 414.462952,486.284119 
M594.155457,624.500610 
	C594.155457,618.377441 594.155457,612.254272 594.155457,605.938965 
	C598.944031,605.938965 603.280396,605.938965 607.998047,605.938965 
	C607.998047,618.482788 607.998047,630.566101 607.998047,642.647705 
	C612.620789,642.647705 616.842590,642.647705 621.034241,642.647705 
	C621.034241,614.715515 621.034241,587.135010 621.034241,559.376953 
	C616.565552,559.376953 612.349487,559.376953 607.756592,559.376953 
	C607.756592,570.615112 607.756592,581.544189 607.756592,592.596436 
	C603.028015,592.596436 598.686096,592.596436 593.962036,592.596436 
	C593.962036,581.277466 593.962036,570.360779 593.962036,559.427002 
	C589.350464,559.427002 585.138733,559.427002 580.927979,559.427002 
	C580.927979,587.370667 580.927979,614.948547 580.927979,642.698853 
	C585.389099,642.698853 589.607117,642.698853 594.155457,642.698853 
	C594.155457,636.768433 594.155457,631.134033 594.155457,624.500610 
M455.935516,624.222595 
	C455.847565,622.273743 455.759613,620.324829 455.665802,618.246460 
	C451.286285,618.246460 447.232300,618.246460 443.061249,618.246460 
	C443.061249,621.519287 442.796509,624.518921 443.109039,627.457214 
	C444.209167,637.799805 450.661133,643.736694 460.853333,644.049377 
	C472.870026,644.418030 480.265991,639.163879 481.888977,628.779724 
	C483.549957,618.152466 481.314362,608.605896 473.342926,600.862854 
	C469.286560,596.922791 465.161346,593.046082 461.256256,588.960083 
	C457.872620,585.419678 456.401520,581.090149 457.019257,576.141724 
	C457.453827,572.660767 459.360779,570.681396 462.902985,570.627075 
	C466.466125,570.572449 468.456848,572.568420 468.923340,575.997498 
	C469.227295,578.232117 469.256866,580.504150 469.405396,582.700073 
	C473.863007,582.700073 477.796051,582.700073 481.954834,582.700073 
	C481.954834,579.817261 482.187134,577.166931 481.913788,574.569946 
	C480.847443,564.438354 474.574158,558.502319 464.641510,558.008789 
	C452.883026,557.424500 445.927338,562.344604 443.730988,572.739868 
	C441.603577,582.809082 444.252838,591.532654 451.261322,598.911377 
	C455.040192,602.889893 459.120422,606.580872 463.020050,610.446472 
	C466.734406,614.128357 468.797333,618.618286 468.684662,623.853333 
	C468.605652,627.524292 467.589386,631.043152 463.118896,631.479675 
	C458.657166,631.915344 456.316467,629.524658 455.935516,624.222595 
M736.120667,592.212952 
	C736.120667,585.437622 736.120667,578.662292 736.120667,571.358521 
	C743.875244,571.358521 751.119202,571.358521 758.385254,571.358521 
	C758.385254,567.046143 758.385254,563.279480 758.385254,559.460205 
	C746.245911,559.460205 734.394958,559.460205 722.569458,559.460205 
	C722.569458,587.456116 722.569458,615.037537 722.569458,642.760620 
	C734.621399,642.760620 746.367371,642.760620 758.278748,642.760620 
	C758.278748,638.638245 758.278748,634.774231 758.278748,630.554199 
	C750.774353,630.554199 743.654602,630.554199 736.276550,630.554199 
	C736.276550,622.108765 736.276550,614.025391 736.276550,605.379639 
	C742.229126,605.379639 747.975952,605.379639 753.640015,605.379639 
	C753.640015,600.918518 753.640015,597.024902 753.640015,592.882446 
	C747.781494,592.882446 742.293274,592.882446 736.120667,592.212952 
z"/>
<path fill="#FFFEFE" opacity="1.000000" stroke="none" 
	d="
M342.451141,269.323792 
	C356.954254,219.971130 389.157410,189.333176 438.800873,178.513092 
	C470.173462,171.675262 500.249542,177.545044 527.733459,194.680267 
	C530.921021,196.667618 533.305481,196.178864 536.309937,194.373962 
	C567.954224,175.364136 601.697876,171.033447 636.946655,181.552078 
	C647.296997,184.640747 656.953003,190.167435 666.737610,194.963699 
	C669.256104,196.198212 670.751892,196.608185 673.333435,195.034225 
	C705.306946,175.539841 739.490601,170.940277 775.341370,181.429428 
	C801.623413,189.118958 823.157104,204.341812 839.136047,226.606186 
	C866.167480,264.270813 871.033936,305.381958 853.852295,348.054504 
	C840.751160,380.592743 816.895569,403.569580 783.713379,416.161285 
	C749.535522,429.130859 716.049011,426.967194 683.261597,411.300415 
	C678.671448,409.107117 674.307922,404.623871 669.807068,404.580688 
	C665.487671,404.539307 661.218872,409.078522 656.768188,411.282318 
	C627.150208,425.947540 596.314941,428.595520 564.814758,419.028961 
	C554.463867,415.885468 544.717712,410.542603 535.030151,405.554474 
	C532.251526,404.123810 530.811157,404.307037 528.502075,405.722321 
	C515.534180,413.670502 501.705719,419.602661 486.652039,422.162720 
	C441.913788,429.770966 403.067963,418.068481 371.989868,384.748871 
	C341.495148,352.054779 332.555267,313.141602 342.451141,269.323792 
M602.020752,278.424927 
	C600.359619,272.015076 598.698486,265.605225 597.078003,259.352478 
	C591.234436,259.352478 585.812927,259.352478 580.364807,259.352478 
	C580.364807,287.349762 580.364807,315.046112 580.364807,342.682190 
	C584.460632,342.682190 588.201904,342.682190 592.326050,342.682190 
	C592.326050,324.039429 592.326050,305.716156 592.326050,287.392853 
	C593.368835,288.336243 593.786316,289.358765 594.062683,290.418121 
	C598.340698,306.811340 602.678345,323.189850 606.785095,339.626007 
	C607.445496,342.269012 608.456848,343.212067 611.117310,343.054901 
	C614.542725,342.852509 617.989075,343.005615 621.353271,343.005615 
	C621.353271,314.708679 621.353271,287.025543 621.353271,259.242249 
	C617.289917,259.242249 613.668640,259.242249 609.446533,259.242249 
	C609.446533,273.940155 609.446533,288.463013 609.446533,302.985870 
	C609.092834,303.023163 608.739197,303.060486 608.385498,303.097778 
	C606.311096,295.144501 604.236694,287.191193 602.020752,278.424927 
M757.733276,269.077484 
	C755.749939,264.518280 752.377686,260.866394 747.582520,260.304657 
	C738.440247,259.233612 729.184143,259.134521 719.897522,258.627686 
	C719.897522,287.332520 719.897522,314.915436 719.897522,342.684631 
	C728.219177,342.684631 736.359070,343.147705 744.419739,342.547272 
	C751.685852,342.006012 757.696716,337.773926 758.439392,330.439728 
	C760.482300,310.267181 761.104919,289.996826 757.733276,269.077484 
M473.030701,265.457947 
	C472.637268,263.383728 472.243805,261.309509 471.852905,259.248627 
	C465.692657,259.248627 459.908081,259.248627 453.696838,259.248627 
	C449.162537,287.071411 444.648224,314.771423 440.086853,342.760376 
	C444.493469,342.760376 448.594666,342.760376 452.786407,342.760376 
	C453.639008,337.409027 454.465210,332.223328 455.277405,327.125610 
	C460.288666,327.125610 464.863068,327.125610 469.520447,327.125610 
	C470.402618,332.616058 471.231140,337.772675 472.037659,342.792328 
	C476.742401,342.792328 480.859650,342.792328 485.636078,342.792328 
	C481.429962,317.094421 477.274628,291.706543 473.030701,265.457947 
z"/>
<path fill="#DD1F27" opacity="1.000000" stroke="none" 
	d="
M734.007812,915.461060 
	C733.575989,921.284973 733.221252,926.722656 733.036072,932.166016 
	C732.907288,935.953491 733.011230,939.748840 733.011230,944.008545 
	C730.438660,944.008545 728.319519,944.008545 726.200439,944.008545 
	C724.070923,944.008545 721.941406,944.008545 719.547363,944.008545 
	C719.547363,915.960693 719.547363,888.368958 719.547363,860.413208 
	C723.855591,860.413208 728.087952,860.413208 732.866577,860.413208 
	C732.866577,870.800354 732.866577,881.326782 732.866577,891.853210 
	C733.202637,891.926208 733.538757,891.999146 733.874817,892.072144 
	C737.905823,883.609009 742.353088,875.311768 745.814941,866.621887 
	C747.961731,861.232971 750.955200,859.076050 756.544678,860.004639 
	C758.283569,860.293518 760.110962,860.049622 763.051575,860.049622 
	C760.202759,865.645508 758.244019,870.794678 755.206665,875.200195 
	C747.906860,885.787903 747.275452,896.277344 752.144836,908.269470 
	C756.744873,919.598022 759.455017,931.693848 763.162354,944.003052 
	C758.733765,944.003052 754.760132,944.226990 750.842407,943.858032 
	C749.755310,943.755615 748.314636,942.059082 747.918823,940.813354 
	C744.848145,931.150452 741.997681,921.417603 739.066406,911.710205 
	C738.787048,910.784973 738.421997,909.885559 737.795349,908.129517 
	C736.341980,910.905029 735.249695,912.991089 734.007812,915.461060 
z"/>
<path fill="#DD1D25" opacity="1.000000" stroke="none" 
	d="
M442.732727,921.942749 
	C442.732819,908.637695 442.720428,895.823059 442.744720,883.008484 
	C442.749451,880.514038 442.744934,878.003906 443.005310,875.528381 
	C444.046387,865.630859 450.762451,859.519897 461.005157,859.019104 
	C472.798584,858.442505 479.969696,863.331726 482.157837,873.506409 
	C482.540314,875.284973 482.908203,877.112305 482.915588,878.918579 
	C482.978088,894.228699 483.201630,909.544250 482.888702,924.848206 
	C482.579193,939.985901 472.241119,947.811951 457.381470,944.702209 
	C449.074951,942.963867 443.833771,937.071716 442.983093,928.416870 
	C442.788116,926.433289 442.810669,924.428345 442.732727,921.942749 
M456.193756,887.551514 
	C456.193634,898.856628 456.152222,910.161987 456.227722,921.466553 
	C456.243103,923.772095 456.020782,926.502380 457.132904,928.263367 
	C458.346832,930.185486 461.022095,932.364441 462.990601,932.299988 
	C464.980225,932.234863 467.446503,929.900757 468.650940,927.920227 
	C469.643372,926.288147 469.206543,923.720276 469.213501,921.566528 
	C469.252106,909.596558 469.248260,897.626282 469.222076,885.656250 
	C469.215881,882.832947 469.211151,879.996460 468.948364,877.190125 
	C468.624817,873.735474 466.568329,871.763977 463.077393,871.616699 
	C459.601807,871.469910 457.245270,873.155457 456.786011,876.651428 
	C456.355530,879.928345 456.373260,883.264160 456.193756,887.551514 
z"/>
<path fill="#DD1E26" opacity="1.000000" stroke="none" 
	d="
M580.940552,923.843201 
	C580.942871,908.714294 580.827759,894.063232 580.986145,879.415161 
	C581.143616,864.853455 590.361816,857.133240 604.835815,859.144287 
	C614.370422,860.469116 620.675476,866.731201 620.894897,876.532349 
	C621.274841,893.502930 621.295288,910.494812 620.899597,927.464661 
	C620.648804,938.219849 613.347351,944.699524 602.468567,945.053650 
	C589.932556,945.461731 582.631470,939.750427 581.124146,928.311035 
	C580.950928,926.996399 580.998108,925.652649 580.940552,923.843201 
M607.624512,907.498901 
	C607.519714,897.695984 607.491150,887.891418 607.273621,878.091003 
	C607.183411,874.023254 605.081543,871.460632 600.748657,871.602661 
	C596.636902,871.737427 594.841248,874.392822 594.824524,878.180603 
	C594.754028,894.133301 594.761353,910.086609 594.830444,926.039307 
	C594.847107,929.896057 596.852539,932.472046 600.843689,932.567200 
	C605.117920,932.669128 607.158081,929.992554 607.300842,925.935059 
	C607.505310,920.126099 607.525635,914.310608 607.624512,907.498901 
z"/>
<path fill="#DD1E26" opacity="1.000000" stroke="none" 
	d="
M308.234528,867.450623 
	C313.903198,859.785461 322.398590,857.172302 331.954041,859.875305 
	C339.503418,862.010864 343.504761,867.237061 344.334808,876.623230 
	C344.668671,880.398743 344.389771,884.228455 344.389771,888.447876 
	C340.362335,888.447876 336.343323,888.447876 331.748016,888.447876 
	C331.748016,885.442505 331.902710,882.486267 331.710419,879.552734 
	C331.446716,875.530640 330.574188,871.732849 325.397797,871.607483 
	C321.499359,871.513000 319.272736,874.244995 319.161102,879.606812 
	C319.005219,887.092346 319.107910,894.583374 319.107605,902.072021 
	C319.107330,909.560730 319.009521,917.051514 319.157837,924.537354 
	C319.262817,929.834778 321.550476,932.588806 325.383911,932.619385 
	C329.215790,932.649963 331.448181,929.995483 331.711517,924.625244 
	C331.904572,920.687744 331.749329,916.733154 331.749329,913.210632 
	C332.467560,912.702026 332.595459,912.535950 332.740265,912.519531 
	C344.847443,911.150269 344.939270,911.233093 344.695251,923.190979 
	C344.437195,935.835388 340.261078,942.274170 330.835846,944.559265 
	C316.786407,947.965454 306.230743,940.617737 305.804932,926.306885 
	C305.325165,910.182129 305.562012,894.030151 305.800934,877.894653 
	C305.851013,874.514221 307.268555,871.154053 308.234528,867.450623 
z"/>
<path fill="#DD1E26" opacity="1.000000" stroke="none" 
	d="
M882.355469,859.252075 
	C893.847717,862.388550 897.674561,868.837036 896.924988,883.581543 
	C892.910889,883.581543 888.864868,883.581543 884.392212,883.581543 
	C884.255432,881.534668 884.181702,879.424805 883.959656,877.330627 
	C883.568176,873.637146 881.536011,871.503723 877.741333,871.635925 
	C873.911133,871.769287 871.523376,874.237366 872.147888,877.774658 
	C872.894470,882.002869 874.073242,886.598206 876.524841,889.974365 
	C879.898438,894.620300 884.660217,898.252625 888.791931,902.354858 
	C896.552185,910.059509 898.534790,919.543091 896.856689,929.944946 
	C895.255127,939.872742 888.225037,945.126099 877.178406,945.077576 
	C866.253723,945.029541 859.758972,939.751953 858.235352,929.268494 
	C857.767883,926.052124 858.162781,922.710510 858.162781,919.186401 
	C862.238892,919.186401 866.176880,919.186401 870.592773,919.186401 
	C870.729431,921.545715 870.845825,923.971375 871.015747,926.393250 
	C871.274292,930.076721 873.227783,932.352051 876.929626,932.545532 
	C880.635437,932.739197 882.815430,930.709167 883.414734,927.030640 
	C884.371033,921.160828 882.472900,916.157288 878.475220,911.984009 
	C874.563354,907.900269 870.325867,904.129517 866.391113,900.066528 
	C860.146484,893.618469 857.273560,885.898743 858.171143,876.878662 
	C859.344482,865.087891 866.084473,858.975281 877.946289,858.979919 
	C879.275818,858.980469 880.605347,859.107605 882.355469,859.252075 
z"/>
<path fill="#DC1A22" opacity="1.000000" stroke="none" 
	d="
M594.155457,625.000122 
	C594.155457,631.134033 594.155457,636.768433 594.155457,642.698853 
	C589.607117,642.698853 585.389099,642.698853 580.927979,642.698853 
	C580.927979,614.948547 580.927979,587.370667 580.927979,559.427002 
	C585.138733,559.427002 589.350464,559.427002 593.962036,559.427002 
	C593.962036,570.360779 593.962036,581.277466 593.962036,592.596436 
	C598.686096,592.596436 603.028015,592.596436 607.756592,592.596436 
	C607.756592,581.544189 607.756592,570.615112 607.756592,559.376953 
	C612.349487,559.376953 616.565552,559.376953 621.034241,559.376953 
	C621.034241,587.135010 621.034241,614.715515 621.034241,642.647705 
	C616.842590,642.647705 612.620789,642.647705 607.998047,642.647705 
	C607.998047,630.566101 607.998047,618.482788 607.998047,605.938965 
	C603.280396,605.938965 598.944031,605.938965 594.155457,605.938965 
	C594.155457,612.254272 594.155457,618.377441 594.155457,625.000122 
z"/>
<path fill="#DD1E26" opacity="1.000000" stroke="none" 
	d="
M455.963501,624.663574 
	C456.316467,629.524658 458.657166,631.915344 463.118896,631.479675 
	C467.589386,631.043152 468.605652,627.524292 468.684662,623.853333 
	C468.797333,618.618286 466.734406,614.128357 463.020050,610.446472 
	C459.120422,606.580872 455.040192,602.889893 451.261322,598.911377 
	C444.252838,591.532654 441.603577,582.809082 443.730988,572.739868 
	C445.927338,562.344604 452.883026,557.424500 464.641510,558.008789 
	C474.574158,558.502319 480.847443,564.438354 481.913788,574.569946 
	C482.187134,577.166931 481.954834,579.817261 481.954834,582.700073 
	C477.796051,582.700073 473.863007,582.700073 469.405396,582.700073 
	C469.256866,580.504150 469.227295,578.232117 468.923340,575.997498 
	C468.456848,572.568420 466.466125,570.572449 462.902985,570.627075 
	C459.360779,570.681396 457.453827,572.660767 457.019257,576.141724 
	C456.401520,581.090149 457.872620,585.419678 461.256256,588.960083 
	C465.161346,593.046082 469.286560,596.922791 473.342926,600.862854 
	C481.314362,608.605896 483.549957,618.152466 481.888977,628.779724 
	C480.265991,639.163879 472.870026,644.418030 460.853333,644.049377 
	C450.661133,643.736694 444.209167,637.799805 443.109039,627.457214 
	C442.796509,624.518921 443.061249,621.519287 443.061249,618.246460 
	C447.232300,618.246460 451.286285,618.246460 455.665802,618.246460 
	C455.759613,620.324829 455.847565,622.273743 455.963501,624.663574 
z"/>
<path fill="#DD2028" opacity="1.000000" stroke="none" 
	d="
M736.462830,592.547729 
	C742.293274,592.882446 747.781494,592.882446 753.640015,592.882446 
	C753.640015,597.024902 753.640015,600.918518 753.640015,605.379639 
	C747.975952,605.379639 742.229126,605.379639 736.276550,605.379639 
	C736.276550,614.025391 736.276550,622.108765 736.276550,630.554199 
	C743.654602,630.554199 750.774353,630.554199 758.278748,630.554199 
	C758.278748,634.774231 758.278748,638.638245 758.278748,642.760620 
	C746.367371,642.760620 734.621399,642.760620 722.569458,642.760620 
	C722.569458,615.037537 722.569458,587.456116 722.569458,559.460205 
	C734.394958,559.460205 746.245911,559.460205 758.385254,559.460205 
	C758.385254,563.279480 758.385254,567.046143 758.385254,571.358521 
	C751.119202,571.358521 743.875244,571.358521 736.120667,571.358521 
	C736.120667,578.662292 736.120667,585.437622 736.462830,592.547729 
z"/>
<path fill="#DD1E26" opacity="1.000000" stroke="none" 
	d="
M602.091553,278.831421 
	C604.236694,287.191193 606.311096,295.144501 608.385498,303.097778 
	C608.739197,303.060486 609.092834,303.023163 609.446533,302.985870 
	C609.446533,288.463013 609.446533,273.940155 609.446533,259.242249 
	C613.668640,259.242249 617.289917,259.242249 621.353271,259.242249 
	C621.353271,287.025543 621.353271,314.708679 621.353271,343.005615 
	C617.989075,343.005615 614.542725,342.852509 611.117310,343.054901 
	C608.456848,343.212067 607.445496,342.269012 606.785095,339.626007 
	C602.678345,323.189850 598.340698,306.811340 594.062683,290.418121 
	C593.786316,289.358765 593.368835,288.336243 592.326050,287.392853 
	C592.326050,305.716156 592.326050,324.039429 592.326050,342.682190 
	C588.201904,342.682190 584.460632,342.682190 580.364807,342.682190 
	C580.364807,315.046112 580.364807,287.349762 580.364807,259.352478 
	C585.812927,259.352478 591.234436,259.352478 597.078003,259.352478 
	C598.698486,265.605225 600.359619,272.015076 602.091553,278.831421 
z"/>
<path fill="#DC1D25" opacity="1.000000" stroke="none" 
	d="
M757.865967,269.444366 
	C761.104919,289.996826 760.482300,310.267181 758.439392,330.439728 
	C757.696716,337.773926 751.685852,342.006012 744.419739,342.547272 
	C736.359070,343.147705 728.219177,342.684631 719.897522,342.684631 
	C719.897522,314.915436 719.897522,287.332520 719.897522,258.627686 
	C729.184143,259.134521 738.440247,259.233612 747.582520,260.304657 
	C752.377686,260.866394 755.749939,264.518280 757.865967,269.444366 
M734.823608,330.517303 
	C744.532776,330.643066 745.987488,329.269836 746.000732,319.829742 
	C746.018494,307.176941 746.026489,294.523987 745.997986,281.871246 
	C745.976929,272.520416 743.048706,270.276001 733.364502,272.315674 
	C733.298157,273.049988 733.162598,273.854248 733.162048,274.658600 
	C733.149109,292.139496 733.136475,309.620422 733.186890,327.101196 
	C733.189941,328.164307 733.716858,329.225922 734.823608,330.517303 
z"/>
<path fill="#DD1E26" opacity="1.000000" stroke="none" 
	d="
M473.074982,265.888306 
	C477.274628,291.706543 481.429962,317.094421 485.636078,342.792328 
	C480.859650,342.792328 476.742401,342.792328 472.037659,342.792328 
	C471.231140,337.772675 470.402618,332.616058 469.520447,327.125610 
	C464.863068,327.125610 460.288666,327.125610 455.277405,327.125610 
	C454.465210,332.223328 453.639008,337.409027 452.786407,342.760376 
	C448.594666,342.760376 444.493469,342.760376 440.086853,342.760376 
	C444.648224,314.771423 449.162537,287.071411 453.696838,259.248627 
	C459.908081,259.248627 465.692657,259.248627 471.852905,259.248627 
	C472.243805,261.309509 472.637268,263.383728 473.074982,265.888306 
M461.592316,280.656891 
	C460.026642,291.931763 458.460999,303.206635 456.892456,314.502350 
	C460.952026,314.502350 464.309601,314.502350 467.886627,314.502350 
	C466.126587,302.097778 464.428497,290.129517 462.618805,277.374969 
	C462.163666,278.730713 461.959747,279.338074 461.592316,280.656891 
z"/>
<path fill="#FEF9FA" opacity="1.000000" stroke="none" 
	d="
M456.193756,887.062805 
	C456.373260,883.264160 456.355530,879.928345 456.786011,876.651428 
	C457.245270,873.155457 459.601807,871.469910 463.077393,871.616699 
	C466.568329,871.763977 468.624817,873.735474 468.948364,877.190125 
	C469.211151,879.996460 469.215881,882.832947 469.222076,885.656250 
	C469.248260,897.626282 469.252106,909.596558 469.213501,921.566528 
	C469.206543,923.720276 469.643372,926.288147 468.650940,927.920227 
	C467.446503,929.900757 464.980225,932.234863 462.990601,932.299988 
	C461.022095,932.364441 458.346832,930.185486 457.132904,928.263367 
	C456.020782,926.502380 456.243103,923.772095 456.227722,921.466553 
	C456.152222,910.161987 456.193634,898.856628 456.193756,887.062805 
z"/>
<path fill="#FEF8F8" opacity="1.000000" stroke="none" 
	d="
M607.624512,907.998413 
	C607.525635,914.310608 607.505310,920.126099 607.300842,925.935059 
	C607.158081,929.992554 605.117920,932.669128 600.843689,932.567200 
	C596.852539,932.472046 594.847107,929.896057 594.830444,926.039307 
	C594.761353,910.086609 594.754028,894.133301 594.824524,878.180603 
	C594.841248,874.392822 596.636902,871.737427 600.748657,871.602661 
	C605.081543,871.460632 607.183411,874.023254 607.273621,878.091003 
	C607.491150,887.891418 607.519714,897.695984 607.624512,907.998413 
z"/>
<path fill="#FEF9F9" opacity="1.000000" stroke="none" 
	d="
M734.411865,330.402771 
	C733.716858,329.225922 733.189941,328.164307 733.186890,327.101196 
	C733.136475,309.620422 733.149109,292.139496 733.162048,274.658600 
	C733.162598,273.854248 733.298157,273.049988 733.364502,272.315674 
	C743.048706,270.276001 745.976929,272.520416 745.997986,281.871246 
	C746.026489,294.523987 746.018494,307.176941 746.000732,319.829742 
	C745.987488,329.269836 744.532776,330.643066 734.411865,330.402771 
z"/>
<path fill="#FDF3F4" opacity="1.000000" stroke="none" 
	d="
M461.674072,280.301147 
	C461.959747,279.338074 462.163666,278.730713 462.618805,277.374969 
	C464.428497,290.129517 466.126587,302.097778 467.886627,314.502350 
	C464.309601,314.502350 460.952026,314.502350 456.892456,314.502350 
	C458.460999,303.206635 460.026642,291.931763 461.674072,280.301147 
z"/>
</svg>